# File created by Blade
# Date/Time:  Fri Jan 16 19:49:56 2015
# Frame Rate: 120.000 fps
#------------------------------------------------------
:FULLY-SPECIFIED
:DEGREES
565
root 20.085831 35.112846 -12.273862 -109.232319 1.714386 -178.552459
Spine 70.590394 0.382848 -8.765365
Head -16.935321 3.977314 -1.371529
LeftShoulder -21.200397 18.560515 11.771357
LeftArm -58.735945 10.151845 -100.781733
LeftForeArm 20.718955 -0.000000 -0.882873
LeftHand -1.421034 -0.000000 -42.226756
LeftHandThumb1 -26.253704 0.000000 33.147579
RightShoulder -25.887653 -49.296444 -5.307738
RightArm -21.830137 -24.601888 84.973143
RightForeArm -34.974270 0.000000 7.229304
RightHand 4.373320 -0.000000 48.851314
RightHandThumb1 -24.326973 -0.000000 -32.862282
LeftUpLeg -76.423532 5.949963 3.499298
LeftLeg -5.217585 -0.000000 0.000000
LeftFoot -6.593932 32.778645 -8.425069
LeftToeBase 27.070803 -0.000000 -0.000000
RightUpLeg -76.706240 -2.239677 -5.838855
RightLeg -4.126364 -0.000000 0.000000
RightFoot -6.622904 -19.668585 12.900273
RightToeBase 27.055390 -0.000000 -0.000000
566
root 20.073148 35.111047 -12.261148 -109.264165 1.788161 -178.565317
Spine 70.606658 0.411370 -8.796469
Head -17.001644 3.929859 -1.354919
LeftShoulder -21.185221 18.546733 11.813315
LeftArm -58.732256 10.118093 -100.739557
LeftForeArm 20.758377 0.000000 -0.860929
LeftHand -1.462207 -0.000000 -42.175289
LeftHandThumb1 -26.253704 0.000000 33.147579
RightShoulder -25.882632 -49.286307 -5.321845
RightArm -21.801629 -24.398790 84.934881
RightForeArm -35.147409 -0.000000 7.168061
RightHand 4.397428 0.000000 48.796230
RightHandThumb1 -24.326973 -0.000000 -32.862282
LeftUpLeg -76.364324 5.932247 3.477931
LeftLeg -5.280232 -0.000000 0.000000
LeftFoot -6.566939 32.819472 -8.423025
LeftToeBase 27.013563 -0.000000 -0.000000
RightUpLeg -76.746933 -2.271839 -5.851649
RightLeg -4.043022 -0.000000 0.000000
RightFoot -6.621544 -19.542696 12.791080
RightToeBase 27.299111 -0.000000 -0.000000
567
root 20.061925 35.109209 -12.245785 -109.275286 1.853839 -178.577221
Spine 70.605204 0.447203 -8.818598
Head -17.047988 3.900772 -1.323983
LeftShoulder -21.166542 18.565284 11.857431
LeftArm -58.731866 10.134685 -100.775024
LeftForeArm 20.781111 -0.000000 -0.850862
LeftHand -1.482747 -0.000000 -42.128088
LeftHandThumb1 -26.253704 0.000000 33.147579
RightShoulder -25.874886 -49.258463 -5.332998
RightArm -21.845663 -24.319062 84.944251
RightForeArm -35.208394 -0.000000 7.159338
RightHand 4.382788 0.000000 48.788895
RightHandThumb1 -24.326973 -0.000000 -32.862282
LeftUpLeg -76.345122 5.921353 3.451894
LeftLeg -5.312667 -0.000000 0.000000
LeftFoot -6.545594 32.819753 -8.409376
LeftToeBase 27.081668 -0.000000 -0.000000
RightUpLeg -76.807189 -2.285079 -5.876101
RightLeg -3.967743 -0.000000 0.000000
RightFoot -6.645074 -19.503785 12.996934
RightToeBase 27.059279 -0.000000 -0.000000
568
root 20.050033 35.107698 -12.229307 -109.277898 1.907907 -178.600826
Spine 70.614986 0.455039 -8.829313
Head -17.106981 3.872422 -1.326039
LeftShoulder -21.153046 18.549262 11.882336
LeftArm -58.788498 10.233460 -100.922073
LeftForeArm 20.679193 -0.000000 -0.868056
LeftHand -1.493037 0.000000 -42.133582
LeftHandThumb1 -26.253704 0.000000 33.147579
RightShoulder -25.933322 -49.273469 -5.254483
RightArm -21.887974 -24.429094 84.967222
RightForeArm -35.150334 -0.000000 7.216141
RightHand 4.373822 0.000000 48.841901
RightHandThumb1 -24.326973 -0.000000 -32.862282
LeftUpLeg -76.334687 5.892539 3.449233
LeftLeg -5.352705 -0.000000 0.000000
LeftFoot -6.498989 32.851423 -8.408767
LeftToeBase 27.018502 -0.000000 -0.000000
RightUpLeg -76.868672 -2.322021 -5.910759
RightLeg -3.903781 -0.000000 0.000000
RightFoot -6.644163 -19.448107 13.091455
RightToeBase 27.066271 -0.000000 -0.000000
569
root 20.039101 35.105747 -12.212588 -109.272058 1.947063 -178.620883
Spine 70.625173 0.455108 -8.837707
Head -17.150624 3.859964 -1.346384
LeftShoulder -21.159825 18.573634 11.886143
LeftArm -58.824647 10.350113 -101.061563
LeftForeArm 20.601392 -0.000000 -0.893383
LeftHand -1.436767 -0.000000 -42.190181
LeftHandThumb1 -26.253704 0.000000 33.147579
RightShoulder -25.993722 -49.353320 -5.158687
RightArm -21.874789 -24.726886 85.037679
RightForeArm -35.032236 -0.000000 7.244490
RightHand 4.377648 0.000000 48.871294
RightHandThumb1 -24.326973 -0.000000 -32.862282
LeftUpLeg -76.340946 5.862022 3.479438
LeftLeg -5.371387 -0.000000 0.000000
LeftFoot -6.486360 32.889011 -8.411783
LeftToeBase 27.023731 -0.000000 -0.000000
RightUpLeg -76.924498 -2.358073 -5.932766
RightLeg -3.864864 -0.000000 0.000000
RightFoot -6.632763 -19.391300 13.075278
RightToeBase 27.154970 -0.000000 -0.000000
570
root 20.033181 35.103533 -12.197758 -109.272634 1.951825 -178.623044
Spine 70.663700 0.462449 -8.820939
Head -17.224659 3.848105 -1.365722
LeftShoulder -21.165846 18.556307 11.893169
LeftArm -58.901350 10.399475 -101.113163
LeftForeArm 20.527405 0.000000 -0.904771
LeftHand -1.439160 -0.000000 -42.252109
LeftHandThumb1 -26.253704 0.000000 33.147579
RightShoulder -25.964019 -49.318365 -5.143342
RightArm -22.035674 -25.033758 85.160547
RightForeArm -34.827485 -0.000000 7.303037
RightHand 4.386586 -0.000000 48.849405
RightHandThumb1 -24.326973 -0.000000 -32.862282
LeftUpLeg -76.363762 5.856152 3.499021
LeftLeg -5.356946 -0.000000 0.000000
LeftFoot -6.503201 32.874880 -8.443201
LeftToeBase 27.048912 -0.000000 -0.000000
RightUpLeg -76.951645 -2.374506 -5.938052
RightLeg -3.858308 -0.000000 0.000000
RightFoot -6.617239 -19.372830 13.169025
RightToeBase 27.062322 -0.000000 -0.000000
